<?xml version="1.0" encoding="UTF-8" standalone="no"?>
<svg
   xmlns:dc="http://purl.org/dc/elements/1.1/"
   xmlns:cc="http://creativecommons.org/ns#"
   xmlns:rdf="http://www.w3.org/1999/02/22-rdf-syntax-ns#"
   xmlns:svg="http://www.w3.org/2000/svg"
   xmlns="http://www.w3.org/2000/svg"
   viewBox="0 0 404 385.33334"
   height="385.33334"
   width="404"
   xml:space="preserve"
   id="svg2"
   version="1.1"><metadata
     id="metadata8"><rdf:RDF><cc:Work
         rdf:about=""><dc:format>image/svg+xml</dc:format><dc:type
           rdf:resource="http://purl.org/dc/dcmitype/StillImage" /><dc:title></dc:title></cc:Work></rdf:RDF></metadata><defs
     id="defs6"><clipPath
       id="clipPath18"
       clipPathUnits="userSpaceOnUse"><path
         id="path16"
         d="M 0,289 H 303 V 0 H 0 Z" /></clipPath></defs><g
     transform="matrix(1.3333333,0,0,-1.3333333,0,385.33333)"
     id="g10"><g
       id="g12"><g
         clip-path="url(#clipPath18)"
         id="g14"><g
           transform="translate(131.2506,173.2166)"
           id="g20"><path
             id="path22"
             style="fill:#e0241d;fill-opacity:1;fill-rule:nonzero;stroke:none"
             d="M 0,0 C 5.787,0 11.17,-1.718 15.679,-4.662 20.85,10.889 30.888,24.206 43.996,33.493 31.566,42.301 16.394,47.494 0,47.494 c -42.09,0 -76.211,-34.12 -76.211,-76.211 0,-42.09 34.121,-76.211 76.211,-76.211 16.394,0 31.566,5.194 43.996,14.002 C 30.888,-81.639 20.85,-68.322 15.679,-52.771 11.17,-55.716 5.787,-57.434 0,-57.434 c -15.86,0 -28.717,12.857 -28.717,28.717 C -28.717,-12.856 -15.86,0 0,0" /></g><g
           transform="translate(219.2432,173.2171)"
           id="g24"><path
             id="path26"
             style="fill:#e0241d;fill-opacity:1;fill-rule:nonzero;stroke:none"
             d="m 0,0 c -15.86,0 -28.717,-12.857 -28.717,-28.717 0,-15.86 12.857,-28.717 28.717,-28.717 15.86,0 28.717,12.857 28.717,28.717 C 28.717,-12.857 15.86,0 0,0" /></g></g></g></g></svg>